<svg width="31" height="31" viewBox="0 0 31 31" fill="none" xmlns="http://www.w3.org/2000/svg">
<path d="M13.2343 6.36848C14.2019 4.54384 16.7981 4.54384 17.7657 6.36848L26.6965 23.1925C26.9058 23.5867 27.0101 24.0288 26.9992 24.4757C26.9884 24.9226 26.8627 25.359 26.6346 25.7424C26.4064 26.1259 26.0835 26.4433 25.6972 26.6636C25.311 26.884 24.8747 26.9999 24.4308 27H6.56921C6.12529 26.9999 5.68897 26.884 5.30276 26.6636C4.91655 26.4433 4.59362 26.1259 4.36544 25.7424C4.13727 25.359 4.01163 24.9226 4.00077 24.4757C3.98991 24.0288 4.0942 23.5867 4.30347 23.1925L13.2343 6.36848ZM15.823 7.41389C15.7916 7.3552 15.745 7.30618 15.6881 7.27201C15.6312 7.23784 15.5662 7.2198 15.5 7.2198C15.4338 7.2198 15.3688 7.23784 15.3119 7.27201C15.255 7.30618 15.2084 7.3552 15.177 7.41389L6.24616 24.2379C6.21624 24.2942 6.2013 24.3573 6.2028 24.4211C6.20429 24.4849 6.22218 24.5473 6.25471 24.6021C6.28724 24.6568 6.3333 24.7022 6.38841 24.7338C6.44353 24.7653 6.50581 24.7819 6.56921 24.782H24.4308C24.4942 24.7819 24.5565 24.7653 24.6116 24.7338C24.6667 24.7022 24.7128 24.6568 24.7453 24.6021C24.7778 24.5473 24.7957 24.4849 24.7972 24.4211C24.7987 24.3573 24.7838 24.2942 24.7538 24.2379L15.823 7.41389ZM16.6013 13.3225V17.0192C16.6013 17.3133 16.4853 17.5953 16.2787 17.8033C16.0722 18.0113 15.7921 18.1281 15.5 18.1281C15.2079 18.1281 14.9278 18.0113 14.7213 17.8033C14.5147 17.5953 14.3987 17.3133 14.3987 17.0192V13.3225C14.3987 13.0284 14.5147 12.7464 14.7213 12.5384C14.9278 12.3304 15.2079 12.2136 15.5 12.2136C15.7921 12.2136 16.0722 12.3304 16.2787 12.5384C16.4853 12.7464 16.6013 13.0284 16.6013 13.3225ZM16.9684 21.0854C16.9684 21.4776 16.8137 21.8537 16.5383 22.131C16.2629 22.4083 15.8894 22.5641 15.5 22.5641C15.1106 22.5641 14.7371 22.4083 14.4617 22.131C14.1863 21.8537 14.0316 21.4776 14.0316 21.0854C14.0316 20.6933 14.1863 20.3172 14.4617 20.0399C14.7371 19.7626 15.1106 19.6068 15.5 19.6068C15.8894 19.6068 16.2629 19.7626 16.5383 20.0399C16.8137 20.3172 16.9684 20.6933 16.9684 21.0854Z" fill="#787878"/>
</svg>
