<svg width="21" height="20" viewBox="0 0 21 20" fill="none" xmlns="http://www.w3.org/2000/svg">
<path fill-rule="evenodd" clip-rule="evenodd" d="M8.47254 4.37506C8.50911 4.31173 8.56171 4.25913 8.62505 4.22257C8.68839 4.186 8.76024 4.16675 8.83337 4.16675C8.90651 4.16675 8.97836 4.186 9.0417 4.22257C9.10504 4.25913 9.15764 4.31173 9.19421 4.37506L11.2859 8.00131C11.0771 8.524 10.9895 9.08724 11.0297 9.64865C11.0699 10.2101 11.2369 10.7551 11.5182 11.2426C11.7994 11.7302 12.1875 12.1477 12.6533 12.4636C13.1191 12.7795 13.6505 12.9858 14.2075 13.0667L15.443 15.2092C15.4795 15.2726 15.4988 15.3445 15.4988 15.4177C15.4988 15.4908 15.4795 15.5627 15.4429 15.6261C15.4062 15.6894 15.3536 15.742 15.2902 15.7786C15.2268 15.8151 15.1549 15.8343 15.0817 15.8342H2.58462C2.51149 15.8342 2.43963 15.815 2.3763 15.7784C2.31296 15.7418 2.26036 15.6892 2.22379 15.6259C2.18722 15.5626 2.16797 15.4907 2.16797 15.4176C2.16797 15.3444 2.18722 15.2726 2.22379 15.2092L8.47254 4.37506ZM8.31213 13.5626V12.5209H9.35462V13.5626H8.31213ZM8.83337 8.35215C8.54587 8.35215 8.31254 8.58548 8.31254 8.87298V11.1646C8.31254 11.3029 8.36746 11.4355 8.46521 11.5332C8.56297 11.631 8.69555 11.6859 8.83379 11.6859C8.97204 11.6859 9.10462 11.631 9.20237 11.5332C9.30012 11.4355 9.35504 11.3029 9.35504 11.1646V8.87298C9.35504 8.58548 9.12129 8.35215 8.83337 8.35215Z" fill="#5E5E5E"/>
<path fill-rule="evenodd" clip-rule="evenodd" d="M11.8545 9.36047C11.8553 9.24658 11.8627 9.13477 11.8766 9.02505C11.9302 8.59378 12.0803 8.18016 12.3159 7.81496C12.5514 7.44977 12.8664 7.14241 13.2372 6.91577C13.608 6.68913 14.0251 6.54905 14.4575 6.50595C14.89 6.46285 15.3266 6.51784 15.7348 6.66683C16.143 6.81583 16.5124 7.05499 16.8154 7.3665C17.1184 7.67802 17.3473 8.05387 17.4849 8.46608C17.6226 8.87828 17.6655 9.31622 17.6104 9.7473C17.5554 10.1784 17.4038 10.5915 17.167 10.9559L18.8353 12.6242L18.207 13.253L16.5728 11.6188C16.0573 12.042 15.4107 12.2728 14.7437 12.2717C14.3569 12.2724 13.974 12.195 13.6178 12.0442C13.2642 11.894 12.9439 11.6751 12.6756 11.4C12.4073 11.125 12.1963 10.7994 12.0549 10.4421C11.9219 10.1049 11.8539 9.7455 11.8545 9.38297V9.36047ZM14.7432 11.383C15.0059 11.383 15.266 11.3312 15.5086 11.2307C15.7513 11.1302 15.9717 10.9829 16.1575 10.7972C16.3432 10.6115 16.4905 10.391 16.591 10.1483C16.6915 9.90568 16.7432 9.64561 16.7432 9.38297C16.7432 9.12032 16.6915 8.86025 16.591 8.6176C16.4905 8.37495 16.3432 8.15447 16.1575 7.96875C15.9717 7.78303 15.7513 7.63572 15.5086 7.53521C15.266 7.4347 15.0059 7.38297 14.7432 7.38297C14.2128 7.38297 13.7041 7.59368 13.329 7.96875C12.954 8.34382 12.7432 8.85253 12.7432 9.38297C12.7432 9.9134 12.954 10.4221 13.329 10.7972C13.7041 11.1723 14.2128 11.383 14.7432 11.383Z" fill="#5E5E5E"/>
</svg>
