<svg width="15" height="16" viewBox="0 0 15 16" fill="none" xmlns="http://www.w3.org/2000/svg">
<path d="M1.25 13.0063L1.25625 12.9994M9.375 13H12.5C12.8315 13 13.1495 12.8683 13.3839 12.6339C13.6183 12.3995 13.75 12.0815 13.75 11.75V4.25C13.75 3.91848 13.6183 3.60054 13.3839 3.36612C13.1495 3.1317 12.8315 3 12.5 3H2.5C2.16848 3 1.85054 3.1317 1.61612 3.36612C1.3817 3.60054 1.25 3.91848 1.25 4.25V4.875M1.25 10.5C2.5 10.8125 3.4375 11.75 3.75 13M1.25 8C3.75 8.3125 5.9375 10.5 6.25 13" stroke="#5E5E5E" stroke-linecap="round" stroke-linejoin="round"/>
<path fill-rule="evenodd" clip-rule="evenodd" d="M3.1266 5.2688C3.1266 5.16934 3.16611 5.07396 3.23644 5.00363C3.30676 4.93331 3.40215 4.8938 3.5016 4.8938H11.5041C11.5533 4.8938 11.6021 4.9035 11.6476 4.92234C11.6931 4.94119 11.7344 4.96881 11.7693 5.00363C11.8041 5.03846 11.8317 5.0798 11.8506 5.12529C11.8694 5.17079 11.8791 5.21955 11.8791 5.2688V10.7888C11.8791 10.838 11.8694 10.8868 11.8506 10.9323C11.8317 10.9778 11.8041 11.0191 11.7693 11.054C11.7344 11.0888 11.6931 11.1164 11.6476 11.1353C11.6021 11.1541 11.5533 11.1638 11.5041 11.1638H8.40035C8.32742 11.1633 8.25612 11.1422 8.19464 11.1029C8.13317 11.0637 8.08402 11.0079 8.05285 10.9419C7.7891 10.3844 7.0391 8.90442 6.1341 8.00005C5.2466 7.11317 3.9016 6.47255 3.36223 6.23755C3.29235 6.20792 3.23271 6.15843 3.19071 6.09521C3.14871 6.03199 3.1262 5.95782 3.12598 5.88192L3.1266 5.2688Z" fill="#5E5E5E"/>
</svg>
