<svg width="45" height="44" viewBox="0 0 45 44" fill="none" xmlns="http://www.w3.org/2000/svg">
<g clip-path="url(#clip0_452_324)">
<path d="M9.72695 11.4349C9.75071 11.9191 9.95063 12.3492 10.3267 12.7253L31.5642 33.9628C31.9387 34.3404 32.3684 34.5408 32.8534 34.5637C33.3384 34.5868 33.7508 34.4292 34.0906 34.0912C34.4304 33.7531 34.5879 33.3416 34.5632 32.8565C34.5386 32.3715 34.3383 31.9409 33.9622 31.5648L12.7247 10.3273C12.3504 9.95298 11.9203 9.75306 11.4343 9.72753C10.9484 9.702 10.5364 9.85914 10.1984 10.1989C9.86033 10.5387 9.70319 10.9507 9.72695 11.4349Z" fill="#F7F7F7"/>
<path d="M12.7252 33.9666C12.3491 34.3428 11.9189 34.5428 11.4347 34.5665C10.9505 34.5904 10.5384 34.4333 10.1986 34.0953C9.85884 33.7571 9.70172 33.3452 9.72729 32.8592C9.75286 32.3732 9.95283 31.943 10.3272 31.5686L31.5682 10.3276C31.9444 9.95148 32.375 9.75107 32.8601 9.72638C33.3452 9.7017 33.7567 9.85926 34.0948 10.1991C34.4328 10.5389 34.5903 10.9513 34.5674 11.4363C34.5443 11.9213 34.344 12.3511 33.9662 12.7256L23.3458 23.3462L12.7252 33.9666Z" fill="#F7F7F7"/>
</g>
<defs>
<clipPath id="clip0_452_324">
<rect width="26" height="26" fill="white" transform="translate(9 9)"/>
</clipPath>
</defs>
</svg>
