<svg width="26" height="25" viewBox="0 0 26 25" fill="none" xmlns="http://www.w3.org/2000/svg">
<path d="M5.02051 21.0938C4.81415 21.0911 4.617 21.0079 4.47106 20.8619C4.32513 20.716 4.24196 20.5189 4.23926 20.3125V4.6875C4.23926 4.4803 4.32157 4.28159 4.46808 4.13507C4.61459 3.98856 4.81331 3.90625 5.02051 3.90625C5.22771 3.90625 5.42642 3.98856 5.57293 4.13507C5.71945 4.28159 5.80176 4.4803 5.80176 4.6875V20.3125C5.79906 20.5189 5.71588 20.716 5.56995 20.8619C5.42402 21.0079 5.22687 21.0911 5.02051 21.0938Z" fill="#1A2E48"/>
<path d="M20.6455 21.0938H5.02051C4.81331 21.0938 4.61459 21.0114 4.46808 20.8649C4.32157 20.7184 4.23926 20.5197 4.23926 20.3125C4.23926 20.1053 4.32157 19.9066 4.46808 19.7601C4.61459 19.6136 4.81331 19.5313 5.02051 19.5313H20.6455C20.8527 19.5313 21.0514 19.6136 21.1979 19.7601C21.3444 19.9066 21.4268 20.1053 21.4268 20.3125C21.4268 20.5197 21.3444 20.7184 21.1979 20.8649C21.0514 21.0114 20.8527 21.0938 20.6455 21.0938ZM14.9163 15.3646C14.8137 15.3651 14.712 15.345 14.6172 15.3057C14.5224 15.2663 14.4364 15.2085 14.3643 15.1354L11.7913 12.5625L9.21842 15.1354C9.07032 15.2734 8.87444 15.3485 8.67205 15.345C8.46965 15.3414 8.27654 15.2594 8.1334 15.1163C7.99026 14.9731 7.90827 14.78 7.9047 14.5776C7.90113 14.3752 7.97626 14.1794 8.11426 14.0313L11.2393 10.9063C11.3857 10.76 11.5843 10.6778 11.7913 10.6778C11.9984 10.6778 12.1969 10.76 12.3434 10.9063L14.9163 13.4792L18.5309 9.86459C18.679 9.72659 18.8749 9.65146 19.0773 9.65503C19.2797 9.6586 19.4728 9.74059 19.6159 9.88373C19.7591 10.0269 19.8411 10.22 19.8446 10.4224C19.8482 10.6248 19.7731 10.8207 19.6351 10.9688L15.4684 15.1354C15.3963 15.2085 15.3103 15.2663 15.2155 15.3057C15.1207 15.345 15.019 15.3651 14.9163 15.3646Z" fill="#1A2E48"/>
<path d="M19.6038 14.4167C19.3975 14.414 19.2003 14.3308 19.0544 14.1849C18.9085 14.0389 18.8253 13.8418 18.8226 13.6354V10.6771H15.958C15.7508 10.6771 15.5521 10.5948 15.4056 10.4483C15.2591 10.3017 15.1768 10.103 15.1768 9.89584C15.1768 9.68864 15.2591 9.48992 15.4056 9.34341C15.5521 9.1969 15.7508 9.11459 15.958 9.11459H19.6038C19.8102 9.11728 20.0074 9.20046 20.1533 9.34639C20.2992 9.49232 20.3824 9.68947 20.3851 9.89584V13.6354C20.3824 13.8418 20.2992 14.0389 20.1533 14.1849C20.0074 14.3308 19.8102 14.414 19.6038 14.4167Z" fill="#1A2E48"/>
</svg>
