<svg width="15" height="16" viewBox="0 0 15 16" fill="none" xmlns="http://www.w3.org/2000/svg">
<path d="M2.5 13.6251C2.32292 13.6251 2.17458 13.5651 2.055 13.4451C1.93542 13.3251 1.87542 13.1768 1.875 13.0001V12.3751C1.875 12.198 1.935 12.0497 2.055 11.9301C2.175 11.8105 2.32333 11.7505 2.5 11.7501C2.67667 11.7497 2.82521 11.8097 2.94562 11.9301C3.06604 12.0505 3.12583 12.1989 3.125 12.3751V13.0001C3.125 13.1772 3.065 13.3257 2.945 13.4457C2.825 13.5657 2.67667 13.6255 2.5 13.6251ZM5 13.6251C4.82292 13.6251 4.67458 13.5651 4.555 13.4451C4.43542 13.3251 4.37542 13.1768 4.375 13.0001V9.56261C4.375 9.38553 4.435 9.2372 4.555 9.11761C4.675 8.99803 4.82333 8.93803 5 8.93761C5.17667 8.9372 5.32521 8.9972 5.44563 9.11761C5.56604 9.23803 5.62583 9.38636 5.625 9.56261V13.0001C5.625 13.1772 5.565 13.3257 5.445 13.4457C5.325 13.5657 5.17667 13.6255 5 13.6251ZM7.5 13.6251C7.32292 13.6251 7.17458 13.5651 7.055 13.4451C6.93542 13.3251 6.87542 13.1768 6.875 13.0001V10.8126C6.875 10.6355 6.935 10.4872 7.055 10.3676C7.175 10.248 7.32333 10.188 7.5 10.1876C7.67667 10.1872 7.82521 10.2472 7.94563 10.3676C8.06604 10.488 8.12583 10.6364 8.125 10.8126V13.0001C8.125 13.1772 8.065 13.3257 7.945 13.4457C7.825 13.5657 7.67667 13.6255 7.5 13.6251ZM10 13.6251C9.82292 13.6251 9.67458 13.5651 9.555 13.4451C9.43542 13.3251 9.37542 13.1768 9.375 13.0001V9.87511C9.375 9.69803 9.435 9.5497 9.555 9.43011C9.675 9.31053 9.82333 9.25053 10 9.25011C10.1767 9.2497 10.3252 9.3097 10.4456 9.43011C10.566 9.55053 10.6258 9.69886 10.625 9.87511V13.0001C10.625 13.1772 10.565 13.3257 10.445 13.4457C10.325 13.5657 10.1767 13.6255 10 13.6251ZM12.5 13.6251C12.3229 13.6251 12.1746 13.5651 12.055 13.4451C11.9354 13.3251 11.8754 13.1768 11.875 13.0001V7.37511C11.875 7.19803 11.935 7.0497 12.055 6.93011C12.175 6.81053 12.3233 6.75053 12.5 6.75011C12.6767 6.7497 12.8252 6.8097 12.9456 6.93011C13.066 7.05053 13.1258 7.19886 13.125 7.37511V13.0001C13.125 13.1772 13.065 13.3257 12.945 13.4457C12.825 13.5657 12.6767 13.6255 12.5 13.6251ZM8.75 7.98449C8.58333 7.98449 8.42438 7.95324 8.27313 7.89074C8.12188 7.82824 7.98396 7.7397 7.85937 7.62511L6.25 6.01574L2.9375 9.32824C2.8125 9.45324 2.66417 9.51324 2.4925 9.50824C2.32083 9.50324 2.17229 9.43803 2.04688 9.31261C1.93229 9.18761 1.87771 9.03928 1.88313 8.86761C1.88854 8.69595 1.94833 8.55261 2.0625 8.43761L5.35937 5.14074C5.48437 5.01574 5.6225 4.9247 5.77375 4.86761C5.925 4.81053 6.08375 4.78178 6.25 4.78136C6.41625 4.78095 6.57771 4.8097 6.73437 4.86761C6.89104 4.92553 7.02646 5.01657 7.14063 5.14074L8.75 6.75011L12.0625 3.43761C12.1875 3.31261 12.336 3.25261 12.5081 3.25761C12.6802 3.26261 12.8285 3.32782 12.9531 3.45324C13.0677 3.57824 13.1225 3.72678 13.1175 3.89886C13.1125 4.07095 13.0525 4.21407 12.9375 4.32824L9.64063 7.62511C9.52604 7.7397 9.39062 7.82824 9.23437 7.89074C9.07812 7.95324 8.91667 7.98449 8.75 7.98449Z" fill="#5E5E5E"/>
</svg>
