<svg width="25" height="25" viewBox="0 0 25 25" fill="none" xmlns="http://www.w3.org/2000/svg">
<path d="M11.4583 20.8333C9.6292 20.8389 7.86481 20.1568 6.51509 18.9223C5.16537 17.6878 4.32889 15.9912 4.17157 14.1689C4.01424 12.3465 4.54756 10.5316 5.66575 9.0841C6.78394 7.63658 8.40531 6.66218 10.2083 6.35416C16.1458 5.20833 17.7083 4.66666 19.7916 2.08333C20.8333 4.16666 21.875 6.4375 21.875 10.4167C21.875 16.1458 16.8958 20.8333 11.4583 20.8333Z" stroke="#1A2E48" stroke-width="1.5" stroke-linecap="round" stroke-linejoin="round"/>
<path d="M2.08301 21.875C2.08301 18.75 4.01009 16.2917 7.37467 15.625C9.89551 15.125 12.4997 13.5417 13.5413 12.5" stroke="#1A2E48" stroke-width="1.5" stroke-linecap="round" stroke-linejoin="round"/>
</svg>
