<svg width="240" height="39" viewBox="0 0 240 39" fill="none" xmlns="http://www.w3.org/2000/svg">
<path d="M69.9541 35.3863V4.32542H83.2715C84.604 4.32542 85.8664 4.61739 87.0586 5.20129C88.2648 5.78519 89.2746 6.55423 90.088 7.50843C90.9016 8.4626 91.5468 9.54488 92.0237 10.7555C92.5004 11.966 92.739 13.1908 92.739 14.4298C92.739 16.5377 92.192 18.4459 91.098 20.155C90.0039 21.8496 88.5593 22.989 86.7639 23.5728L93.9592 35.3863H88.5311L81.8831 24.577H74.7719V35.3863H69.9541ZM74.7719 20.2404H83.2296C84.5618 20.2404 85.6629 19.6779 86.5326 18.5527C87.4022 17.4134 87.8369 16.0392 87.8369 14.4298C87.8369 12.8489 87.346 11.4959 86.3642 10.371C85.3823 9.23165 84.2463 8.66199 82.9559 8.66199H74.7719V20.2404ZM107.298 35.8135C105.012 35.8135 102.971 35.2723 101.175 34.1899C99.3802 33.1076 98.0058 31.6764 97.0519 29.8961C96.0982 28.1159 95.6213 26.1578 95.6213 24.0215C95.6213 22.4123 95.9018 20.8813 96.4629 19.4287C97.0379 17.9761 97.8233 16.7085 98.8192 15.6261C99.815 14.5438 101.049 13.6893 102.522 13.0626C104.009 12.4217 105.615 12.1012 107.34 12.1012C109.065 12.1012 110.65 12.4217 112.095 13.0626C113.553 13.7035 114.766 14.5652 115.734 15.6475C116.716 16.7157 117.473 17.9547 118.007 19.3644C118.553 20.7745 118.827 22.2485 118.827 23.7865C118.827 24.1853 118.785 24.7692 118.701 25.5383H100.649C100.79 27.5178 101.512 29.1414 102.816 30.4088C104.135 31.6622 105.685 32.2886 107.466 32.2886C108.757 32.2886 109.956 31.9682 111.064 31.3275C112.172 30.6722 112.936 29.8249 113.357 28.7854L117.417 29.9603C116.618 31.712 115.314 33.129 113.504 34.2113C111.695 35.2795 109.626 35.8135 107.298 35.8135ZM100.523 22.3553H114.135C113.967 20.3756 113.238 18.7664 111.947 17.5274C110.671 16.274 109.121 15.6475 107.298 15.6475C105.489 15.6475 103.939 16.2812 102.648 17.5488C101.358 18.802 100.649 20.4042 100.523 22.3553ZM121.288 23.9575C121.288 21.7928 121.716 19.8131 122.572 18.0187C123.427 16.21 124.634 14.7716 126.191 13.7035C127.761 12.6353 129.515 12.1012 131.45 12.1012C133.119 12.1012 134.655 12.5429 136.058 13.4258C137.46 14.2946 138.568 15.4339 139.382 16.8437V3.44958H144.116V29.9603C144.116 30.5156 144.214 30.9145 144.41 31.1565C144.607 31.3987 144.936 31.5267 145.399 31.5412V35.3863C144.571 35.5287 143.884 35.5999 143.337 35.5999C142.454 35.5999 141.703 35.3435 141.086 34.8308C140.483 34.3181 140.16 33.6845 140.118 32.9295L140.076 31.2207C139.221 32.6591 138.07 33.7841 136.626 34.596C135.181 35.4077 133.645 35.8135 132.018 35.8135C129.985 35.8135 128.14 35.2795 126.485 34.2113C124.844 33.129 123.568 31.6906 122.656 29.8961C121.744 28.0875 121.288 26.108 121.288 23.9575ZM139.382 27.1617V21.1589C138.891 19.7775 138.007 18.6098 136.731 17.6556C135.455 16.7013 134.164 16.2242 132.86 16.2242C131.569 16.2242 130.405 16.6017 129.367 17.3564C128.344 18.0971 127.558 19.0654 127.011 20.2618C126.464 21.4437 126.191 22.7113 126.191 24.0643C126.191 26.1862 126.864 27.9948 128.21 29.4903C129.571 30.9715 131.24 31.712 133.217 31.712C134.494 31.712 135.756 31.2705 137.004 30.3876C138.267 29.4903 139.059 28.4151 139.382 27.1617ZM149.501 28.4863C148.954 27.0479 148.681 25.5383 148.681 23.9575C148.681 22.3767 148.962 20.8671 149.522 19.4287C150.083 17.9903 150.855 16.7299 151.837 15.6475C152.819 14.5652 154.039 13.7035 155.498 13.0626C156.97 12.4217 158.555 12.1012 160.252 12.1012C162.524 12.1012 164.551 12.6497 166.332 13.7463C168.128 14.8428 169.495 16.2884 170.435 18.0829C171.375 19.8771 171.845 21.8354 171.845 23.9575C171.845 26.0794 171.375 28.0377 170.435 29.8321C169.495 31.6266 168.128 33.072 166.332 34.1687C164.551 35.2653 162.524 35.8135 160.252 35.8135C158.527 35.8135 156.928 35.4931 155.455 34.8522C153.997 34.2113 152.776 33.3498 151.795 32.2675C150.813 31.1851 150.048 29.9247 149.501 28.4863ZM155.476 29.5117C156.781 30.9785 158.373 31.712 160.252 31.712C162.132 31.712 163.724 30.9643 165.028 29.4689C166.332 27.9734 166.985 26.1364 166.985 23.9575C166.985 21.7784 166.332 19.9483 165.028 18.4673C163.724 16.9719 162.132 16.2242 160.252 16.2242C158.387 16.2242 156.802 16.9791 155.498 18.4887C154.193 19.9984 153.541 21.8426 153.541 24.0215C153.541 26.2148 154.186 28.0446 155.476 29.5117ZM210.535 35.3863H205.78V22.5689C205.78 18.4531 204.433 16.3953 201.74 16.3953C200.408 16.3953 199.181 16.9007 198.059 17.9119C196.937 18.9088 196.137 20.212 195.66 21.8212V35.3863H190.927V22.5689C190.927 18.4531 189.587 16.3953 186.908 16.3953C185.576 16.3953 184.341 16.8937 183.205 17.8904C182.069 18.8874 181.263 20.1834 180.786 21.7784V35.3863H176.052V12.5073H180.365V17.1001C181.249 15.4909 182.42 14.259 183.879 13.4044C185.337 12.5357 186.992 12.1012 188.844 12.1012C190.625 12.1012 192.07 12.5855 193.178 13.5541C194.3 14.5082 195.001 15.7613 195.282 17.3138C196.235 15.6189 197.428 14.3302 198.858 13.4472C200.303 12.5499 201.937 12.1012 203.76 12.1012C208.277 12.1012 210.535 15.2131 210.535 21.4368V35.3863ZM226.209 35.8135C223.922 35.8135 221.882 35.2723 220.086 34.1899C218.291 33.1076 216.916 31.6764 215.963 29.8961C215.009 28.1159 214.532 26.1578 214.532 24.0215C214.532 22.4123 214.813 20.8813 215.374 19.4287C215.949 17.9761 216.734 16.7085 217.73 15.6261C218.726 14.5438 219.96 13.6893 221.433 13.0626C222.919 12.4217 224.525 12.1012 226.251 12.1012C227.976 12.1012 229.561 12.4217 231.005 13.0626C232.464 13.7035 233.678 14.5652 234.645 15.6475C235.626 16.7157 236.384 17.9547 236.916 19.3644C237.464 20.7745 237.737 22.2485 237.737 23.7865C237.737 24.1853 237.695 24.7692 237.611 25.5383H219.56C219.701 27.5178 220.423 29.1414 221.727 30.4088C223.046 31.6622 224.596 32.2886 226.377 32.2886C227.667 32.2886 228.866 31.9682 229.975 31.3275C231.082 30.6722 231.847 29.8249 232.268 28.7854L236.327 29.9603C235.53 31.712 234.223 33.129 232.415 34.2113C230.606 35.2795 228.537 35.8135 226.209 35.8135ZM219.434 22.3553H233.045C232.878 20.3756 232.148 18.7664 230.858 17.5274C229.582 16.274 228.032 15.6475 226.209 15.6475C224.399 15.6475 222.849 16.2812 221.559 17.5488C220.269 18.802 219.56 20.4042 219.434 22.3553Z" fill="#1A2E48"/>
<path d="M151.533 8.39139C154.122 6.37076 162.076 3.96981 169.295 8.74051" stroke="#1A2E48" stroke-width="3.5" stroke-linecap="round"/>
<path d="M1.85711 34.222C1.64766 30.2603 2.77111 20.3774 8.94055 12.5385M1.85711 34.222C4.08497 30.0094 9.80887 20.9387 14.8815 18.3572M1.85711 34.222H13.4534M8.94055 12.5385C16.6523 2.73985 25.7924 2.10762 30.3051 2.10762M8.94055 12.5385L14.8815 18.3572M14.8815 18.3572C19.3601 7.03085 27.03 2.80485 30.3051 2.10762M14.8815 18.3572L30.3051 33.4633M14.8815 18.3572C17.9472 16.9 25.5639 14.3085 30.3624 14.3085M14.8815 18.3572C14.0818 21.8966 12.9507 30.0243 13.4534 34.222M13.4534 34.222H30.3051M58.2389 34.222C58.8674 30.5132 58.4104 20.9843 51.5554 12.5385M58.2389 34.222C56.4703 30.22 51.4754 21.4444 45.6462 18.3572M58.2389 34.222H47.4426M51.5554 12.5385C42.9867 1.98118 34.9892 2.10755 30.3051 2.10762M51.5554 12.5385L45.6462 18.3572M45.6462 18.3572C43.3316 12.9406 37.023 2.10762 30.3051 2.10762M45.6462 18.3572L30.3051 33.4633M45.6462 18.3572C42.5318 16.7757 34.9321 14.3085 30.3624 14.3085M45.6462 18.3572C46.9512 21.6466 47.3873 30.3042 47.4426 34.222M47.4426 34.222H30.3051M30.3051 2.10762L30.3624 14.3085M30.3624 14.3085L30.3051 33.4633M30.3051 34.222V33.4633" stroke="#1A2E48" stroke-width="3"/>
</svg>
