<svg width="41" height="42" viewBox="0 0 41 42" fill="none" xmlns="http://www.w3.org/2000/svg">
<path d="M5.125 36.375L13.0346 28.4637M13.0431 28.4552L8.29396 23.706C6.66421 22.078 8.30421 18.5879 10.5319 18.4478C12.5443 18.3197 17.2029 19.0491 18.7524 17.4997L23.0061 13.2459C24.0602 12.1902 23.3905 9.82924 23.3222 8.52749C23.2231 6.79183 25.9837 4.64787 27.4478 6.11191L35.3864 14.0522C36.8556 15.518 34.7031 18.2701 32.9725 18.1779C31.6708 18.1095 29.3082 17.4399 28.2524 18.4939L23.9987 22.7477C22.4509 24.2971 23.1787 28.954 23.0523 30.9664C22.9122 33.1958 19.422 34.8358 17.7906 33.2044L13.0431 28.4552Z" stroke="white" stroke-width="2" stroke-linecap="round" stroke-linejoin="round"/>
</svg>
