<svg width="25" height="25" viewBox="0 0 25 25" fill="none" xmlns="http://www.w3.org/2000/svg">
<path d="M11.4169 12.3512C10.1597 12.0907 9.04348 11.3736 8.28399 10.3384C7.5245 9.30313 7.17558 8.02316 7.30462 6.74569C7.43365 5.46822 8.03149 4.28388 8.98267 3.42142C9.93385 2.55895 11.1709 2.07955 12.4548 2.07581C13.7418 2.07451 14.9834 2.55147 15.9384 3.41407C16.8935 4.27667 17.494 5.46339 17.6234 6.74384C17.7527 8.02429 17.4017 9.30713 16.6384 10.3433C15.8751 11.3795 14.754 12.0951 13.4928 12.3512V21.7962C13.4928 22.0715 13.3834 22.3355 13.1888 22.5301C12.9941 22.7248 12.7301 22.8341 12.4548 22.8341C12.1796 22.8341 11.9156 22.7248 11.7209 22.5301C11.5263 22.3355 11.4169 22.0715 11.4169 21.7962V12.3512ZM12.4548 10.3791C13.2807 10.3791 14.0727 10.0511 14.6566 9.46714C15.2405 8.8832 15.5686 8.09121 15.5686 7.26539C15.5686 6.43957 15.2405 5.64758 14.6566 5.06364C14.0727 4.4797 13.2807 4.15164 12.4548 4.15164C11.629 4.15164 10.837 4.4797 10.2531 5.06364C9.66915 5.64758 9.3411 6.43957 9.3411 7.26539C9.3411 8.09121 9.66915 8.8832 10.2531 9.46714C10.837 10.0511 11.629 10.3791 12.4548 10.3791Z" fill="#1A2E48"/>
</svg>
