<svg width="20" height="24" viewBox="0 0 20 24" fill="none" xmlns="http://www.w3.org/2000/svg">
<path d="M6.41667 10.9167H12.9167M9.66667 14.1667V7.66667M1 11.1897C1 19.5173 8.4945 22.4423 9.54425 22.8117C9.62586 22.8406 9.70747 22.8406 9.78908 22.8117C10.841 22.4542 18.3333 19.6028 18.3333 11.1908V3.66267C18.3336 3.56585 18.3014 3.47175 18.2419 3.39537C18.1824 3.31899 18.099 3.26473 18.0051 3.24125L9.77175 1.17967C9.70276 1.16242 9.63058 1.16242 9.56158 1.17967L1.32825 3.24125C1.23432 3.26473 1.15096 3.31899 1.09147 3.39537C1.03198 3.47175 0.999774 3.56585 1 3.66267V11.1897Z" stroke="#1A2E48" stroke-width="1.5" stroke-miterlimit="10" stroke-linecap="round" stroke-linejoin="round"/>
</svg>
