<svg width="21" height="20" viewBox="0 0 21 20" fill="none" xmlns="http://www.w3.org/2000/svg">
<path d="M15.1429 4.85737H16V8.28587H12.5714V7.42875H14.4531C14.2254 7.0359 13.9531 6.681 13.6362 6.36404C13.3192 6.04708 12.9665 5.777 12.5781 5.55379C12.1897 5.33058 11.779 5.15871 11.346 5.03817C10.9129 4.91764 10.4643 4.85737 10 4.85737C9.38393 4.85737 8.79688 4.96005 8.23884 5.1654C7.6808 5.37076 7.17857 5.6587 6.73214 6.02922C6.28571 6.39975 5.90625 6.83948 5.59375 7.34839C5.28125 7.85731 5.06696 8.4131 4.95089 9.01577L4.10714 8.84836C4.19643 8.37962 4.33705 7.93543 4.52902 7.5158C4.72098 7.09617 4.95759 6.70778 5.23884 6.35065C5.52009 5.99351 5.83482 5.66762 6.18304 5.37299C6.53125 5.07835 6.91071 4.83282 7.32143 4.6364C7.73214 4.43997 8.16071 4.28372 8.60714 4.16766C9.05357 4.05159 9.51786 3.99578 10 4.00025C10.5268 4.00025 11.0402 4.06721 11.5402 4.20114C12.0402 4.33506 12.5112 4.52925 12.9531 4.78371C13.3951 5.03817 13.8036 5.34397 14.1786 5.70111C14.5536 6.05824 14.875 6.46002 15.1429 6.90644V4.85737ZM10 15.1429C10.6161 15.1429 11.2031 15.0402 11.7612 14.8348C12.3192 14.6295 12.8214 14.3416 13.2679 13.971C13.7143 13.6005 14.0938 13.163 14.4062 12.6586C14.7188 12.1541 14.933 11.5983 15.0491 10.9912L15.8862 11.1519C15.7522 11.8572 15.5045 12.5045 15.1429 13.0938C14.7812 13.6831 14.3393 14.1942 13.817 14.6273C13.2946 15.0603 12.7076 15.3973 12.0558 15.6384C11.404 15.8795 10.7188 16 10 16C9.46875 16 8.95312 15.933 8.45312 15.7991C7.95312 15.6652 7.47991 15.471 7.03348 15.2165C6.58705 14.9621 6.1808 14.6585 5.81473 14.3058C5.44866 13.9532 5.12946 13.5492 4.85714 13.0938V15.1429H4V11.7144H7.42857V12.5715H5.54688C5.77455 12.9688 6.04688 13.3259 6.36384 13.6429C6.6808 13.9599 7.03348 14.2277 7.42188 14.4465C7.81027 14.6652 8.21875 14.8371 8.64732 14.9621C9.07589 15.0871 9.52679 15.1473 10 15.1429Z" fill="#5E5E5E"/>
</svg>
