<svg width="37" height="36" viewBox="0 0 37 36" fill="none" xmlns="http://www.w3.org/2000/svg">
<path d="M16.8562 36V32.7123C13.4315 32.3288 10.4929 30.9112 8.04027 28.4597C5.58767 26.0082 4.17014 23.0696 3.78767 19.6438H0.5V16.3562H3.78767C4.17123 12.9315 5.58932 9.99288 8.04192 7.54027C10.4945 5.08767 13.4326 3.67014 16.8562 3.28767V0H20.1438V3.28767C23.5685 3.67123 26.5071 5.08932 28.9597 7.54192C31.4123 9.99452 32.8299 12.9326 33.2123 16.3562H36.5V19.6438H33.2123C32.8288 23.0685 31.4112 26.0071 28.9597 28.4597C26.5082 30.9123 23.5696 32.3299 20.1438 32.7123V36H16.8562ZM18.5 29.5068C21.6781 29.5068 24.3904 28.3836 26.637 26.137C28.8836 23.8904 30.0068 21.1781 30.0068 18C30.0068 14.8219 28.8836 12.1096 26.637 9.86301C24.3904 7.61644 21.6781 6.49315 18.5 6.49315C15.3219 6.49315 12.6096 7.61644 10.363 9.86301C8.11644 12.1096 6.99315 14.8219 6.99315 18C6.99315 21.1781 8.11644 23.8904 10.363 26.137C12.6096 28.3836 15.3219 29.5068 18.5 29.5068ZM18.5 24.5753C16.6918 24.5753 15.1438 23.9315 13.8562 22.6438C12.5685 21.3562 11.9247 19.8082 11.9247 18C11.9247 16.1918 12.5685 14.6438 13.8562 13.3562C15.1438 12.0685 16.6918 11.4247 18.5 11.4247C20.3082 11.4247 21.8562 12.0685 23.1438 13.3562C24.4315 14.6438 25.0753 16.1918 25.0753 18C25.0753 19.8082 24.4315 21.3562 23.1438 22.6438C21.8562 23.9315 20.3082 24.5753 18.5 24.5753ZM18.5 21.2877C19.4041 21.2877 20.1784 20.966 20.8227 20.3227C21.4671 19.6795 21.7888 18.9052 21.7877 18C21.7866 17.0948 21.4649 16.3211 20.8227 15.6789C20.1805 15.0367 19.4063 14.7145 18.5 14.7123C17.5937 14.7101 16.82 15.0323 16.1789 15.6789C15.5378 16.3255 15.2156 17.0992 15.2123 18C15.209 18.9008 15.5312 19.6751 16.1789 20.3227C16.8266 20.9704 17.6003 21.2921 18.5 21.2877Z" fill="#4B4B4B"/>
</svg>
